<svg
        width="24px"
        height="24px"
        viewBox="0 0 24 24"
        version="1.1"
        xmlns="http://www.w3.org/2000/svg">
    <g
            id="bounding-box-annotations"
            stroke="none"
            stroke-width="1"
            fill="none">
        <g
                id="bbox-edition-step04-copy"
                transform="translate(-721.000000, -671.000000)">
            <g
                    id="delete-btn"
                    transform="translate(716.000000, 666.000000)">
                <g
                        id="delete-24px"
                        transform="translate(5.000000, 5.000000)">
                    <polygon id="Path" points="0 0 24 0 24 24 0 24"/>
                    <polygon id="Path" fill="#000000" opacity="0.3" points="8 9 16 9 16 19 8 19"/>
                    <path d="M15.5,4 L14.5,3 L9.5,3 L8.5,4 L5,4 L5,6 L19,6 L19,4 L15.5,4 Z M6,19 C6,20.1 6.9,21 8,21 L16,21 C17.1,21 18,20.1 18,19 L18,7 L6,7 L6,19 Z M8,9 L16,9 L16,19 L8,19 L8,9 Z"
                          id="Shape" fill="#464646"/>
                </g>
            </g>
        </g>
    </g>
</svg>