<svg
  width="32px"
  height="32px"
  viewBox="0 0 32 32"
  version="1.1"
  id="file-queue"
  xmlns="http://www.w3.org/2000/svg">
  <g
    stroke="none"
    stroke-width="1"
    fill="none"
    fill-rule="evenodd">
    <g
      id="recent_actors-24px"
      transform="translate(1.000000, 0.000000)">
      <polygon
        id="Path"
        points="0 0 32 0 32 32 0 32"/>
      <path
        d="M27.2380952,6.66666667 L27.2380952,25.3333333 L30.6666667,25.3333333 L30.6666667,6.66666667 L27.2380952,6.66666667 Z M21.9047619,25.3333333 L25.3333333,25.3333333 L25.3333333,6.66666667 L21.9047619,6.66666667 L21.9047619,25.3333333 Z M18.6666667,6.66666667 L2.66666667,6.66666667 C1.93333333,6.66666667 1.33333333,7.26666667 1.33333333,8 L1.33333333,24 C1.33333333,24.7333333 1.93333333,25.3333333 2.66666667,25.3333333 L18.6666667,25.3333333 C19.4,25.3333333 20,24.7333333 20,24 L20,8 C20,7.26666667 19.4,6.66666667 18.6666667,6.66666667 Z"
        id="Shape"
        fill="#FFFFFF"/>
    </g>
  </g>
  <text
    x="35%"
    y="53%"
    font-size="10pt"
    fill="black"
    dominant-baseline="middle"
    text-anchor="middle"
    font-weight="600"
    id="file-queue-text"
  >
    0
  </text>
</svg>
