<svg
        version="1.1"
        id="Capa_1"
        width="32px"
        height="32px"
        xmlns="http://www.w3.org/2000/svg"
        x="0px"
        y="0px"
        fill="#464646"
        viewBox="0 0 694.7 656.9"
        style="enable-background:new 0 0 694.7 656.9;"
        xml:space="preserve">
    <g>
		<path
                class="st0"
                d="M589.6,320.9l-64-64c-3.1-3.1-7.7-3.9-11.6-2.3c-4,1.6-6.6,5.5-6.6,9.9v32h-128v-128h32
			c4.3,0,8.2-2.6,9.9-6.6c1.6-4,0.7-8.6-2.3-11.6l-64-64c-4.2-4.2-10.9-4.2-15.1,0l-64,64c-3.1,3.1-4,7.6-2.3,11.6
			c1.6,4,5.5,6.6,9.9,6.6h32v128h-128v-32c0-4.3-2.6-8.2-6.6-9.9c-3.9-1.7-8.6-0.7-11.6,2.3l-64,64c-4.2,4.2-4.2,10.9,0,15.1l64,64
			c3.1,3.1,7.7,4,11.6,2.3c4-1.6,6.6-5.5,6.6-9.8v-32h128v128h-32c-4.3,0-8.2,2.6-9.9,6.6s-0.7,8.6,2.3,11.6l64,64
			c2.1,2.1,4.8,3.1,7.6,3.1s5.5-1,7.6-3.1l64-64c3.1-3.1,4-7.6,2.3-11.6c-1.7-4-5.5-6.6-9.9-6.6h-32v-128h128v32
			c0,4.3,2.6,8.2,6.6,9.9c3.9,1.7,8.6,0.7,11.6-2.3l64-64C593.7,331.8,593.7,325.1,589.6,320.9z"/>
		</g>
</svg>