<?xml version="1.0" encoding="UTF-8"?>
<svg width="24px" height="24px" viewBox="0 0 24 24" version="1.1" xmlns="http://www.w3.org/2000/svg"
>
  <title>ic_no_files</title>
  <g id="Page-1" stroke="none" stroke-width="1" fill="none" fill-rule="evenodd">
    <g id="ic_no_files">
      <polygon id="Path" points="0 0 24 0 24 24 0 24"></polygon>
      <path
        d="M12,13.47 L12.67,12.94 L7.65,7.92 L6.26,9 L12,13.47 Z M12,4.53 L10.83,5.44 L15.85,10.47 L17.74,9 L12,4.53 Z"
        id="Shape" fill="#FFFFFF" fill-rule="nonzero" opacity="0.3"></path>
      <path
        d="M12,4.53 L17.74,9 L15.85,10.47 L17.28,11.89 L21,9 L12,2 L9.41,4.02 L10.83,5.44 L12,4.53 Z M21,14.07 L19.37,12.8 L18.7,13.32 L20.13,14.75 L21,14.07 Z M3.41,0.86 L2,2.27 L6.22,6.49 L3,9 L12,16 L14.1,14.37 L15.52,15.79 L11.99,18.54 L4.62,12.81 L3,14.07 L12,21.07 L16.95,17.22 L20.73,21 L22.14,19.59 L3.41,0.86 Z M12,13.47 L6.26,9 L7.65,7.92 L12.67,12.94 L12,13.47 L12,13.47 Z"
        id="Shape" fill="#FFFFFF" fill-rule="nonzero"></path>
    </g>
  </g>
</svg>
